{"title":"One Life 2011 Documentaire DVDrip Dutch Klam","uid":7200509,"size":1890962288,"categoryP":"video","categoryS":"movies","magnet":"?xt=urn:btih:32864a6417b654e1bc90da72560ef98932192bfa&amp;dn=One+Life+2011+Documentaire+DVDrip+Dutch+Klam&amp;tr=udp%3A%2F%2Ftracker.openbittorrent.com%3A80&amp;tr=udp%3A%2F%2Fopen.demonii.com%3A1337&amp;tr=udp%3A%2F%2Ftracker.coppersurfer.tk%3A6969&amp;tr=udp%3A%2F%2Fexodus.desync.com%3A6969","seeders":0,"leechers":1,"uploader":"Klambake","files":-1,"time":1334918583,"description":"With: Michael Gunton and Martha Holmes\n\nNederlands gesproken,\nVier jaar na het wereldwijde bioscoopsucces van Earth komen de makers met een nieuwe natuurfilm: One Life. Begeleid door de stem van Daniel Craig worden we opnieuw meegenomen op een fabelachtig mooie reis naar de meest indrukwekkende uithoeken van onze planeet. En blijkt dat er tussen al dat imponerende natuurgeweld een rode draad loopt die al het leven met elkaar verbindt.\n\nDutch spoken\nFocuses on the cyclical journey taken by all living creatures, from birth to having youngsters of their own. \n\n------------------------ Dutch Friends ------------------------\n---------------------------------------------------------------\n- Bezoek ook eens mijn vrienden op: &lt;a href=&quot; http://www.Film-Test.nl&quot; rel=&quot;nofollow&quot; target=&quot;_NEW&quot;&gt; http://www.Film-Test.nl&lt;/a&gt; --\n----- voor mijn Nederlandse Sync. ondertitels ---- en meer ----\n------- http://www.Film-Test.nl ---- voor Films en meer -------\n---------------------------------------------------------------\n\nGeneral:\n\nComplete name                    : One LifeOne Life.avi\nFormat                           : AVI\nFormat/Info                      : Audio Video Interleave\nFile size                        : 1.76 GiB\nDuration                         : 1h 21mn\nOverall bit rate                 : 3 098 Kbps\n\nVideo:\n\nFormat                           : MPEG-4 Visual\nFormat profile                   : Simple@L3\nFormat settings, BVOP            : No\nFormat settings, QPel            : No\nFormat settings, GMC             : No warppoints\nFormat settings, Matrix          : Default (H.263)\nCodec ID                         : XVID\nCodec ID/Hint                    : XviD\nDuration                         : 1h 21mn\nBit rate                         : 2 640 Kbps\nWidth                            : 652 pixels\nHeight                           : 352 pixels\nDisplay aspect ratio             : 1.852\nFrame rate                       : 25.000 fps\nColor space                      : YUV\nChroma subsampling               : 4:2:0\nBit depth                        : 8 bits\nScan type                        : Progressive\nCompression mode                 : Lossy\nBits/(Pixel*Frame)               : 0.460\nStream size                      : 1.50 GiB (85%)\nWriting library                  : XviD 1.1.2 (UTC 2006-11-01)\n\nAudio:\n\nFormat                           : AC-3\nFormat/Info                      : Audio Coding 3\nMode extension                   : CM (complete main)\nCodec ID                         : 2000\nDuration                         : 1h 21mn\nBit rate mode                    : Constant\nBit rate                         : 448 Kbps\nChannel(s)                       : 6 channels\nChannel positions                : Front: L C R, Side: L R, LFE\nSampling rate                    : 48.0 KHz\nBit depth                        : 16 bits\nCompression mode                 : Lossy\nStream size                      : 261 MiB (14%)\nAlignment                        : Aligned on interleaves\nInterleave, duration             : 32 ms (0.80 video frame)\nInterleave, preload duration     : 448 ms\n\n\n\n\n","torrent":{"xt":"urn:btih:32864a6417b654e1bc90da72560ef98932192bfa","amp;dn":"One+Life+2011+Documentaire+DVDrip+Dutch+Klam","amp;tr":["udp%3A%2F%2Ftracker.openbittorrent.com%3A80","udp%3A%2F%2Fopen.demonii.com%3A1337","udp%3A%2F%2Ftracker.coppersurfer.tk%3A6969","udp%3A%2F%2Fexodus.desync.com%3A6969"],"infoHash":"32864a6417b654e1bc90da72560ef98932192bfa","infoHashBuffer":{"type":"Buffer","data":[50,134,74,100,23,182,84,225,188,144,218,114,86,14,249,137,50,25,43,250]},"announce":[],"urlList":[]}}